<?xml version="1.0" encoding="UTF-8" standalone="no"?>
<!DOCTYPE svg PUBLIC "-//W3C//DTD SVG 1.1//EN" "http://www.w3.org/Graphics/SVG/1.1/DTD/svg11.dtd">
<!-- Generated by Microsoft Visio, SVG Export task_event.svg task_event -->
<svg xmlns="http://www.w3.org/2000/svg" xmlns:xlink="http://www.w3.org/1999/xlink" xmlns:ev="http://www.w3.org/2001/xml-events"
		xmlns:v="http://schemas.microsoft.com/visio/2003/SVGExtensions/" width="7.04072in" height="4.83488in"
		viewBox="0 0 506.932 348.111" xml:space="preserve" color-interpolation-filters="sRGB" class="st14">
	<v:documentProperties v:langID="1033" v:metric="true" v:viewMarkup="false">
		<v:userDefs>
			<v:ud v:nameU="msvConvertTheme"/>
			<v:ud v:nameU="msvNoAutoConnect" v:val="VT0(1):26"/>
		</v:userDefs>
	</v:documentProperties>

	<style type="text/css">
	<![CDATA[
		.st1 {fill:#ffffff;stroke:#000000;stroke-linecap:round;stroke-linejoin:round;stroke-width:0.24}
		.st2 {fill:#000000;font-family:Arial;font-size:0.499992em}
		.st3 {font-size:1em}
		.st4 {fill:#f2f2f2;stroke:#000000;stroke-linecap:round;stroke-linejoin:round;stroke-width:0.24}
		.st5 {marker-start:url(#mrkr5-18);stroke:#000000;stroke-linecap:round;stroke-linejoin:round;stroke-width:0.24}
		.st6 {fill:#000000;fill-opacity:1;stroke:#000000;stroke-opacity:1;stroke-width:0.08695652173913}
		.st7 {fill:#ffffff;stroke:none;stroke-linecap:butt;stroke-width:7.2}
		.st8 {fill:none;stroke:none;stroke-linecap:round;stroke-linejoin:round;stroke-width:0.72}
		.st9 {marker-end:url(#mrkr10-49);marker-start:url(#mrkr5-18);stroke:#000000;stroke-linecap:round;stroke-linejoin:round;stroke-width:0.24}
		.st10 {stroke:#000000;stroke-dasharray:1.68,1.2;stroke-linecap:round;stroke-linejoin:round;stroke-width:0.24}
		.st11 {marker-start:url(#mrkr10-76);stroke:#000000;stroke-linecap:round;stroke-linejoin:round;stroke-width:0.24}
		.st12 {stroke:#000000;stroke-linecap:round;stroke-linejoin:round;stroke-width:0.24}
		.st13 {marker-end:url(#mrkr10-49);marker-start:url(#mrkr10-76);stroke:#000000;stroke-linecap:round;stroke-linejoin:round;stroke-width:0.24}
		.st14 {fill:none;fill-rule:evenodd;font-size:12px;overflow:visible;stroke-linecap:square;stroke-miterlimit:3}
	]]>
	</style>

	<defs id="Markers">
		<g id="lend5">
			<path d="M 2 1 L 0 0 L 1.98117 -0.993387 C 1.67173 -0.364515 1.67301 0.372641 1.98465 1.00043 " style="stroke:none"/>
		</g>
		<marker id="mrkr5-18" class="st6" v:arrowType="5" v:arrowSize="2" v:setback="18.625" refX="18.625" orient="auto"
				markerUnits="strokeWidth" overflow="visible">
			<use xlink:href="#lend5" transform="scale(11.5) "/>
		</marker>
		<g id="lend10">
			<path
					d="M 0 0.75 C -0.414214 0.75 -0.75 0.414214 -0.75 0 -0.75 -0.414214 -0.414214 -0.75 0 -0.75 0.414214 -0.75 0.75 -0.414214 0.75 0 0.75 0.414214 0.414214 0.75 0 0.75 Z "
					style="stroke:none"/>
		</g>
		<marker id="mrkr10-49" class="st6" v:arrowType="10" v:arrowSize="2" v:setback="8.625" refX="-8.625" orient="auto"
				markerUnits="strokeWidth" overflow="visible">
			<use xlink:href="#lend10" transform="scale(-11.5,-11.5) "/>
		</marker>
		<marker id="mrkr10-76" class="st6" v:arrowType="10" v:arrowSize="2" v:setback="7.125" refX="7.125" orient="auto"
				markerUnits="strokeWidth" overflow="visible">
			<use xlink:href="#lend10" transform="scale(11.5) "/>
		</marker>
	</defs>
	<g v:mID="11" v:index="2" v:groupContext="foregroundPage">
		<title>task_event</title>
		<v:pageProperties v:drawingScale="1" v:pageScale="1" v:drawingUnits="19" v:shadowOffsetX="8.50394"
				v:shadowOffsetY="-8.50394"/>
		<v:layer v:name="Connector" v:index="0"/>
		<v:layer v:name="Flowchart" v:index="1"/>
		<g id="shape132-1" v:mID="132" v:groupContext="shape" transform="translate(25.2,-46.8)">
			<title>Rectangle.132</title>
			<v:userDefs>
				<v:ud v:nameU="visVersion" v:val="VT0(15):26"/>
			</v:userDefs>
			<rect x="0" y="92.5112" width="406.8" height="255.6" class="st1"/>
		</g>
		<g id="shape129-3" v:mID="129" v:groupContext="shape" transform="translate(104.4,-158.4)">
			<title>Rectangle.129</title>
			<desc>Peripheral core</desc>
			<v:userDefs>
				<v:ud v:nameU="visVersion" v:val="VT0(15):26"/>
			</v:userDefs>
			<v:textBlock v:margins="rect(4,4,4,4)"/>
			<v:textRect cx="90" cy="321.111" width="180" height="54"/>
			<rect x="0" y="294.111" width="180" height="54" class="st1"/>
			<text x="76.33" y="319.31" class="st2" v:langID="1044"><v:paragraph v:horizAlign="1"/><v:tabList/>Peripheral<v:newlineChar/><tspan
						x="84.16" dy="1.2em" class="st3">core</tspan></text>		</g>
		<g id="shape123-7" v:mID="123" v:groupContext="shape" transform="translate(36,-270)">
			<title>Rectangle</title>
			<desc>TASK</desc>
			<v:userDefs>
				<v:ud v:nameU="visVersion" v:val="VT0(15):26"/>
			</v:userDefs>
			<v:textBlock v:margins="rect(4,4,4,4)"/>
			<v:textRect cx="54" cy="337.311" width="108" height="21.6"/>
			<rect x="0" y="326.511" width="108" height="21.6" class="st4"/>
			<text x="46.16" y="339.11" class="st2" v:langID="1044"><v:paragraph v:horizAlign="1"/><v:tabList/>TASK</text>		</g>
		<g id="shape124-10" v:mID="124" v:groupContext="shape" v:layerMember="1" transform="translate(528.51,86.3078) rotate(90)">
			<title>Or gate.124</title>
			<desc>OR</desc>
			<v:custProps>
				<v:cp v:nameU="Cost" v:lbl="Cost" v:type="7" v:format="@" v:langID="1033"/>
				<v:cp v:nameU="Duration" v:lbl="Duration" v:type="2" v:langID="1033"/>
				<v:cp v:nameU="Resources" v:lbl="Resources" v:langID="1033"/>
			</v:custProps>
			<v:userDefs>
				<v:ud v:nameU="visVersion" v:val="VT0(15):26"/>
			</v:userDefs>
			<v:textBlock v:margins="rect(2,2,2,2)"/>
			<v:textRect cx="17.5017" cy="334.11" width="35.01" height="28.0028" transform="rotate(-90)"/>
			<path d="M15.17 320.11 A28.7735 28.7735 0 0 1 35 334.11 A26.7282 26.7282 0 0 1 15.17 348.11 L0 348.11 A35.0618 35.0618
						 -180 0 0 0 320.11 L15.17 320.11 Z" class="st1"/>
			<text x="-338.61" y="19.3" transform="rotate(-90)" class="st2" v:langID="1044"><v:paragraph v:horizAlign="1"/><v:tabList/>OR</text>		</g>
		<g id="shape125-13" v:mID="125" v:groupContext="shape" v:layerMember="0" transform="translate(203.436,-258.887)">
			<title>Dynamic connector.125</title>
			<desc>Task signal from PPI</desc>
			<v:textBlock v:margins="rect(4,4,4,4)"/>
			<v:textRect cx="-12.636" cy="286.594" width="65.02" height="15.2035"/>
			<path d="M-8.96 343.64 L-8.96 343.28 L-8.96 286.6 L-9.04 286.6" class="st5"/>
			<rect v:rectContext="textBkgnd" x="-40.3106" y="282.994" width="55.3494" height="7.20016" class="st7"/>
			<text x="-40.31" y="288.39" class="st2" v:langID="1044"><v:paragraph v:horizAlign="1"/><v:tabList/>Task signal from PPI</text>		</g>
		<g id="shape127-21" v:mID="127" v:groupContext="shape" v:layerMember="0" transform="translate(185.4,-210.6)">
			<title>Dynamic connector.127</title>
			<path d="M9 341.84 L9 341.48 L9 331.91" class="st5"/>
		</g>
		<g id="shape128-26" v:mID="128" v:groupContext="shape" v:layerMember="0" transform="translate(187.399,-259.616)">
			<title>Dynamic connector.128</title>
			<desc>write</desc>
			<v:textBlock v:margins="rect(4,4,4,4)"/>
			<v:textRect cx="-32.7463" cy="319.727" width="30" height="15.2035"/>
			<path d="M0 343.64 L0 343.28 L0 326.93 L-43.4 326.93" class="st5"/>
			<rect v:rectContext="textBkgnd" x="-39.0801" y="316.127" width="12.6678" height="7.20016" class="st7"/>
			<text x="-39.08" y="321.53" class="st2" v:langID="1044"><v:paragraph v:horizAlign="1"/><v:tabList/>write</text>		</g>
		<g id="shape130-33" v:mID="130" v:groupContext="shape" transform="translate(180,-201.6)">
			<title>Sheet.130</title>
			<desc>task</desc>
			<v:textBlock v:margins="rect(4,4,4,4)"/>
			<v:textRect cx="14.4" cy="342.711" width="28.81" height="10.8"/>
			<rect x="0" y="337.311" width="28.8" height="10.8" class="st8"/>
			<text x="8.9" y="344.51" class="st2" v:langID="1044"><v:paragraph v:horizAlign="1"/><v:tabList/>task</text>		</g>
		<g id="shape131-36" v:mID="131" v:groupContext="shape" transform="translate(180,-158.4)">
			<title>Sheet.131</title>
			<desc>event</desc>
			<v:textBlock v:margins="rect(4,4,4,4)"/>
			<v:textRect cx="14.4" cy="342.711" width="28.81" height="10.8"/>
			<rect x="0" y="337.311" width="28.8" height="10.8" class="st8"/>
			<text x="7.06" y="344.51" class="st2" v:langID="1044"><v:paragraph v:horizAlign="1"/><v:tabList/>event</text>		</g>
		<g id="shape133-39" v:mID="133" v:groupContext="shape" transform="translate(341.873,-57.6) scale(-1,1)">
			<title>Rectangle.133</title>
			<desc>EVENT m</desc>
			<v:userDefs>
				<v:ud v:nameU="visVersion" v:val="VT0(15):26"/>
			</v:userDefs>
			<v:textBlock v:margins="rect(4,4,4,4)"/>
			<v:textRect cx="54" cy="337.311" width="108" height="21.6"/>
			<rect x="0" y="326.511" width="108" height="21.6" class="st4"/>
			<text x="-67.33" y="339.11" transform="scale(-1,1)" class="st2" v:langID="1044"><v:paragraph v:horizAlign="1"/><v:tabList/>EVENT m</text>		</g>
		<g id="shape134-42" v:mID="134" v:groupContext="shape" v:layerMember="0" transform="translate(233.873,-59.4)">
			<title>Dynamic connector.134</title>
			<path d="M-4.47 339.11 L-4.83 339.11 L-37.4 339.11" class="st9"/>
		</g>
		<g id="shape153-50" v:mID="153" v:groupContext="shape" v:layerMember="0" transform="translate(489.6,-59.4)">
			<title>Dynamic connector.153</title>
			<desc>IRQ signal to NVIC</desc>
			<v:textBlock v:margins="rect(4,4,4,4)"/>
			<v:textRect cx="-28.8" cy="349.911" width="60.36" height="15.2035"/>
			<path d="M-4.47 339.11 L-4.83 339.11 L-69.93 339.11" class="st9"/>
			<rect v:rectContext="textBkgnd" x="-54.1411" y="346.312" width="50.6824" height="7.20016" class="st7"/>
			<text x="-54.14" y="351.71" class="st2" v:langID="1044"><v:paragraph v:horizAlign="1"/><v:tabList/>IRQ signal to NVIC</text>		</g>
		<g id="shape154-59" v:mID="154" v:groupContext="shape" transform="translate(342,-86.4) scale(-1,1)">
			<title>Rectangle.154</title>
			<desc>INTEN</desc>
			<v:userDefs>
				<v:ud v:nameU="visVersion" v:val="VT0(15):26"/>
			</v:userDefs>
			<v:textBlock v:margins="rect(4,4,4,4)"/>
			<v:textRect cx="54" cy="337.311" width="108" height="21.6"/>
			<rect x="0" y="326.511" width="108" height="21.6" class="st4"/>
			<text x="-63" y="339.11" transform="scale(-1,1)" class="st2" v:langID="1044"><v:paragraph v:horizAlign="1"/><v:tabList/>INTEN</text>		</g>
		<g id="shape155-62" v:mID="155" v:groupContext="shape" transform="translate(331.327,-86.4) scale(-1,1)">
			<title>Rectangle.155</title>
			<desc>m</desc>
			<v:userDefs>
				<v:ud v:nameU="visVersion" v:val="VT0(15):26"/>
			</v:userDefs>
			<v:textBlock v:margins="rect(4,0,4,0)"/>
			<v:textRect cx="3.6" cy="337.311" width="7.2" height="21.6"/>
			<rect x="0" y="326.511" width="7.2" height="21.6" class="st1"/>
			<text x="-6.1" y="339.11" transform="scale(-1,1)" class="st2" v:langID="1044"><v:paragraph v:horizAlign="1"/><v:tabList/>m</text>		</g>
		<g id="shape156-65" v:mID="156" v:groupContext="shape" v:layerMember="0" transform="translate(403.2,-72.8578)">
			<title>Dynamic connector.156</title>
			<path d="M0 348.11 L0 299.47 L-75.47 299.47 L-75.47 312.97" class="st10"/>
		</g>
		<g id="shape158-68" v:mID="158" v:groupContext="shape" transform="translate(25.2,-302.4)">
			<title>Sheet.158</title>
			<desc>Peripheral</desc>
			<v:textBlock v:margins="rect(4,4,4,4)"/>
			<v:textRect cx="203.4" cy="342.711" width="406.8" height="10.8"/>
			<rect x="0" y="337.311" width="406.8" height="10.8" class="st8"/>
			<text x="4" y="344.51" class="st2" v:langID="1044"><v:paragraph/><v:tabList/>Peripheral</text>		</g>
		<g id="shape182-71" v:mID="182" v:groupContext="shape" v:layerMember="0" transform="translate(392.4,-64.231)">
			<title>Dynamic connector.182</title>
			<path d="M1.58 343.29 L1.91 343.15 L23.39 334.28" class="st11"/>
		</g>
		<g id="shape183-77" v:mID="183" v:groupContext="shape" v:layerMember="0" transform="translate(341.873,-59.4)">
			<title>Dynamic connector.183</title>
			<path d="M0 339.11 L50.53 339.11" class="st12"/>
		</g>
		<g id="shape187-80" v:mID="187" v:groupContext="shape" transform="translate(234,-237.6)">
			<title>Rectangle.135</title>
			<desc>SHORTS</desc>
			<v:userDefs>
				<v:ud v:nameU="visVersion" v:val="VT0(15):26"/>
			</v:userDefs>
			<v:textBlock v:margins="rect(4,4,4,4)"/>
			<v:textRect cx="54" cy="337.311" width="108" height="21.6"/>
			<rect x="0" y="326.511" width="108" height="21.6" class="st4"/>
			<text x="41.5" y="339.11" class="st2" v:langID="1044"><v:paragraph v:horizAlign="1"/><v:tabList/>SHORTS</text>		</g>
		<g id="shape188-83" v:mID="188" v:groupContext="shape" transform="translate(255.6,-237.6)">
			<title>Rectangle.136</title>
			<desc>k</desc>
			<v:userDefs>
				<v:ud v:nameU="visVersion" v:val="VT0(15):26"/>
			</v:userDefs>
			<v:textBlock v:margins="rect(4,0,4,0)"/>
			<v:textRect cx="3.6" cy="337.311" width="7.2" height="21.6"/>
			<rect x="0" y="326.511" width="7.2" height="21.6" class="st1"/>
			<text x="2.1" y="339.11" class="st2" v:langID="1044"><v:paragraph v:horizAlign="1"/><v:tabList/>k</text>		</g>
		<g id="shape189-86" v:mID="189" v:groupContext="shape" v:layerMember="0" transform="translate(244.8,-277.2)">
			<title>Dynamic connector.142</title>
			<path d="M1.6 343.91 L1.94 343.78 L28.8 333.71" class="st11"/>
		</g>
		<g id="shape190-91" v:mID="190" v:groupContext="shape" v:layerMember="0" transform="translate(232.56,-272.202)">
			<title>Dynamic connector.139</title>
		</g>
		<g id="shape191-92" v:mID="191" v:groupContext="shape" v:layerMember="0" transform="translate(250.2,-259.2)">
			<title>Dynamic connector.145</title>
			<path d="M9 348.11 L9 321.11" class="st10"/>
		</g>
		<g id="shape192-95" v:mID="192" v:groupContext="shape" v:layerMember="0" transform="translate(194.306,-143.906)">
			<title>Dynamic connector.192</title>
			<path d="M1.71 348.11 L2.07 348.11 L205.29 348.11 L205.29 211.22 L81.36 211.22" class="st13"/>
		</g>
		<g id="shape193-102" v:mID="193" v:groupContext="shape" v:layerMember="0" transform="translate(201.401,-259.616)">
			<title>Dynamic connector.193</title>
			<path d="M0 343.64 L0 343.28 L0 326.93 L43.4 326.93" class="st5"/>
		</g>
		<g id="shape194-107" v:mID="194" v:groupContext="shape" v:layerMember="0" transform="translate(185.4,-28.8)">
			<title>Dynamic connector.194</title>
			<desc>Event signal to PPI</desc>
			<v:textBlock v:margins="rect(4,4,4,4)"/>
			<v:textRect cx="9.01683" cy="353.415" width="60.37" height="15.2035"/>
			<path d="M9 343.64 L9 343.28 L9 218.51" class="st5"/>
			<rect v:rectContext="textBkgnd" x="-16.3299" y="349.815" width="50.6937" height="7.20016" class="st7"/>
			<text x="-16.33" y="355.22" class="st2" v:langID="1044"><v:paragraph v:horizAlign="1"/><v:tabList/>Event signal to PPI</text>		</g>
	</g>
</svg>
